<svg width="24" height="25" viewBox="0 0 24 25" fill="none" xmlns="http://www.w3.org/2000/svg">
<path d="M21.9116 4.98074C21.7192 4.6356 21.4437 4.34798 21.1119 4.14594C20.7802 3.9439 20.4035 3.83432 20.0187 3.82791H5.76622L5.1204 1.22251C5.05515 0.97101 4.90958 0.749789 4.70739 0.594881C4.5052 0.439973 4.25831 0.360505 4.00693 0.36942H1.77998C1.48467 0.36942 1.20145 0.490878 0.992633 0.707076C0.783816 0.923273 0.666504 1.2165 0.666504 1.52225C0.666504 1.828 0.783816 2.12122 0.992633 2.33742C1.20145 2.55362 1.48467 2.67508 1.77998 2.67508H3.16069L6.23388 14.5031C6.29913 14.7546 6.4447 14.9758 6.64689 15.1307C6.84908 15.2856 7.09597 15.3651 7.34735 15.3562H17.3686C17.5742 15.3556 17.7757 15.296 17.9506 15.1841C18.1255 15.0721 18.2671 14.9123 18.3596 14.7221L22.0118 7.15958C22.1701 6.81606 22.2438 6.4373 22.2263 6.05711C22.2088 5.67693 22.1007 5.30713 21.9116 4.98074Z" fill="white"/>
<path d="M6.79082 21.1207C7.71325 21.1207 8.46103 20.3465 8.46103 19.3915C8.46103 18.4364 7.71325 17.6622 6.79082 17.6622C5.86838 17.6622 5.12061 18.4364 5.12061 19.3915C5.12061 20.3465 5.86838 21.1207 6.79082 21.1207Z" fill="white"/>
<path d="M17.9256 21.1207C18.848 21.1207 19.5958 20.3465 19.5958 19.3915C19.5958 18.4364 18.848 17.6622 17.9256 17.6622C17.0032 17.6622 16.2554 18.4364 16.2554 19.3915C16.2554 20.3465 17.0032 21.1207 17.9256 21.1207Z" fill="white"/>
</svg>
