<svg width="21" height="20" viewBox="0 0 21 20" fill="none" xmlns="http://www.w3.org/2000/svg">
<path d="M19.5236 8.44306L11.2128 1.03208C11.1126 0.943934 10.9934 0.873967 10.8621 0.82622C10.7307 0.778473 10.5898 0.753891 10.4475 0.753891C10.3052 0.753891 10.1643 0.778473 10.033 0.82622C9.90162 0.873967 9.7824 0.943934 9.68219 1.03208L1.37141 8.45247C1.17031 8.62934 1.01149 8.83931 0.904164 9.07018C0.796839 9.30106 0.743151 9.54823 0.746218 9.79735V17.6786C0.745383 18.16 0.956168 18.6234 1.33517 18.9733C1.71417 19.3233 2.23252 19.5331 2.78349 19.5595H18.1115C18.6625 19.5331 19.1809 19.3233 19.5599 18.9733C19.9389 18.6234 20.1497 18.16 20.1488 17.6786V9.79735C20.1497 9.29226 19.9255 8.80664 19.5236 8.44306ZM8.29167 17.6786V12.0357H12.6034V17.6786H8.29167ZM17.993 17.6786H14.7592V11.0952C14.7592 10.8458 14.6456 10.6066 14.4435 10.4302C14.2413 10.2538 13.9672 10.1547 13.6813 10.1547H7.21375C6.92787 10.1547 6.65369 10.2538 6.45154 10.4302C6.2494 10.6066 6.13583 10.8458 6.13583 11.0952V17.6786H2.90206V9.75974L10.4475 3.03531L17.993 9.79735V17.6786Z" fill="white"/>
</svg>
